<svg xmlns="http://www.w3.org/2000/svg" width="512" height="512" viewBox="0 0 512 512">
  <defs>
    <linearGradient id="plate" x1="0" y1="0" x2="1" y2="1">
      <stop offset="0" stop-color="#1E293B"/>
      <stop offset="1" stop-color="#0B1220"/>
    </linearGradient>
  </defs>
  <rect width="512" height="512" rx="96" fill="url(#plate)"/>
  <!-- S -->
  <g transform="translate(70,140)" fill="none" stroke="#F8FAFC" stroke-width="24" stroke-linecap="round" stroke-linejoin="round">
    <path d="M 86 14 H 32 Q 14 14 14 36 V 62 Q 14 84 32 84 H 68 Q 86 84 86 106 V 134 Q 86 156 68 156 H 14"/>
  </g>
  <!-- D -->
  <g transform="translate(206,140)" fill="none" stroke="#F8FAFC" stroke-width="24" stroke-linecap="round" stroke-linejoin="round">
    <path d="M 14 14 H 52 Q 86 14 86 56 V 114 Q 86 156 52 156 H 14 Z"/>
  </g>
  <!-- D -->
  <g transform="translate(342,140)" fill="none" stroke="#F8FAFC" stroke-width="24" stroke-linecap="round" stroke-linejoin="round">
    <path d="M 14 14 H 52 Q 86 14 86 56 V 114 Q 86 156 52 156 H 14 Z"/>
  </g>
  <!-- pipeline arrow -->
  <g fill="none" stroke="#34D399" stroke-width="16" stroke-linecap="round" stroke-linejoin="round">
    <path d="M 172 372 H 318"/>
    <path d="M 298 348 L 340 372 L 298 396"/>
  </g>
</svg>
